HIERARCHY
ROOT Hips
{
	OFFSET 0.000000 100.481300 0.000000
	CHANNELS 6 Xposition Yposition Zposition Xrotation Yrotation Zrotation
	JOINT Spine
	{
		OFFSET -0.279200 12.230698 -2.892100
		CHANNELS 3 Xrotation Yrotation Zrotation
		JOINT Spine1
		{
			OFFSET -0.325700 14.269203 -3.374200
			CHANNELS 3 Xrotation Yrotation Zrotation
			JOINT Spine2
			{
				OFFSET -0.372300 16.307602 -0.352600
				CHANNELS 3 Xrotation Yrotation Zrotation
				JOINT Neck
				{
					OFFSET -0.418800 17.814194 8.416900
					CHANNELS 3 Xrotation Yrotation Zrotation
					JOINT Head
					{
						OFFSET 0.000000 7.031097 3.806800
						CHANNELS 3 Xrotation Yrotation Zrotation
						JOINT HeadTop_End
						{
							OFFSET 0.000000 24.646606 12.978600
							CHANNELS 3 Xrotation Yrotation Zrotation
							End Site
							{
								OFFSET 0.000000 27.854965 0.000000
							}
						}
					}
				}
				JOINT LeftShoulder
				{
					OFFSET 16.952999 14.495407 -7.737500
					CHANNELS 3 Xrotation Yrotation Zrotation
					JOINT LeftArm
					{
						OFFSET 9.308998 -2.777710 0.208600
						CHANNELS 3 Xrotation Yrotation Zrotation
						JOINT LeftForeArm
						{
							OFFSET 29.972298 0.000000 0.000000
							CHANNELS 3 Xrotation Yrotation Zrotation
							JOINT LeftHand
							{
								OFFSET 26.026505 0.000000 0.000000
								CHANNELS 3 Xrotation Yrotation Zrotation
								JOINT LeftHandThumb1
								{
									OFFSET 12.240501 -7.147949 9.207150
									CHANNELS 3 Xrotation Yrotation Zrotation
									JOINT LeftHandThumb2
									{
										OFFSET 4.138618 -2.389435 2.389433
										CHANNELS 3 Xrotation Yrotation Zrotation
										JOINT LeftHandThumb3
										{
											OFFSET 2.726913 -1.574387 1.574386
											CHANNELS 3 Xrotation Yrotation Zrotation
											JOINT LeftHandThumb4
											{
												OFFSET 3.941010 -2.275345 2.275342
												CHANNELS 3 Xrotation Yrotation Zrotation
												End Site
												{
													OFFSET -0.005798 5.087799 0.009903
												}
											}
										}
									}
								}
								JOINT LeftHandIndex1
								{
									OFFSET 24.424698 -1.985611 5.953459
									CHANNELS 3 Xrotation Yrotation Zrotation
									JOINT LeftHandIndex2
									{
										OFFSET 6.426697 0.000000 0.000000
										CHANNELS 3 Xrotation Yrotation Zrotation
										JOINT LeftHandIndex3
										{
											OFFSET 5.337898 0.000000 0.000000
											CHANNELS 3 Xrotation Yrotation Zrotation
											JOINT LeftHandIndex4
											{
												OFFSET 4.409401 0.000000 0.000000
												CHANNELS 3 Xrotation Yrotation Zrotation
												End Site
												{
													OFFSET 0.000000 4.409363 0.014373
												}
											}
										}
									}
								}
								JOINT LeftHandMiddle1
								{
									OFFSET 23.810104 0.000000 0.000000
									CHANNELS 3 Xrotation Yrotation Zrotation
									JOINT LeftHandMiddle2
									{
										OFFSET 7.176498 0.000000 0.000000
										CHANNELS 3 Xrotation Yrotation Zrotation
										JOINT LeftHandMiddle3
										{
											OFFSET 6.774902 0.000000 0.000000
											CHANNELS 3 Xrotation Yrotation Zrotation
											JOINT LeftHandMiddle4
											{
												OFFSET 5.403328 0.000000 0.000000
												CHANNELS 3 Xrotation Yrotation Zrotation
												End Site
												{
													OFFSET -0.027702 5.403244 0.017414
												}
											}
										}
									}
								}
								JOINT LeftHandRing1
								{
									OFFSET 22.908401 -0.839279 -6.020567
									CHANNELS 3 Xrotation Yrotation Zrotation
									JOINT LeftHandRing2
									{
										OFFSET 6.337502 0.000000 0.000000
										CHANNELS 3 Xrotation Yrotation Zrotation
										JOINT LeftHandRing3
										{
											OFFSET 5.779297 0.000000 0.000000
											CHANNELS 3 Xrotation Yrotation Zrotation
											JOINT LeftHandRing4
											{
												OFFSET 4.965698 0.000000 0.000000
												CHANNELS 3 Xrotation Yrotation Zrotation
												End Site
												{
													OFFSET 0.000000 4.965668 0.016186
												}
											}
										}
									}
								}
								JOINT LeftHandPinky1
								{
									OFFSET 20.037003 -1.530319 -10.950146
									CHANNELS 3 Xrotation Yrotation Zrotation
									JOINT LeftHandPinky2
									{
										OFFSET 5.254700 0.000000 0.000000
										CHANNELS 3 Xrotation Yrotation Zrotation
										JOINT LeftHandPinky3
										{
											OFFSET 4.810204 0.000000 0.000000
											CHANNELS 3 Xrotation Yrotation Zrotation
											JOINT LeftHandPinky4
											{
												OFFSET 3.647202 0.000000 0.000000
												CHANNELS 3 Xrotation Yrotation Zrotation
												End Site
												{
													OFFSET 0.000000 3.647186 0.011889
												}
											}
										}
									}
								}
							}
						}
					}
				}
				JOINT RightShoulder
				{
					OFFSET -15.141001 14.495407 -7.737500
					CHANNELS 3 Xrotation Yrotation Zrotation
					JOINT RightArm
					{
						OFFSET -9.308998 -2.777710 0.208500
						CHANNELS 3 Xrotation Yrotation Zrotation
						JOINT RightForeArm
						{
							OFFSET -29.972300 0.000000 0.000000
							CHANNELS 3 Xrotation Yrotation Zrotation
							JOINT RightHand
							{
								OFFSET -26.026505 0.000000 0.000000
								CHANNELS 3 Xrotation Yrotation Zrotation
								JOINT RightHandThumb1
								{
									OFFSET -12.240601 -7.148026 9.207092
									CHANNELS 3 Xrotation Yrotation Zrotation
									JOINT RightHandThumb2
									{
										OFFSET -4.138618 -2.389435 2.389433
										CHANNELS 3 Xrotation Yrotation Zrotation
										JOINT RightHandThumb3
										{
											OFFSET -2.726974 -1.574417 1.574421
											CHANNELS 3 Xrotation Yrotation Zrotation
											JOINT RightHandThumb4
											{
												OFFSET -3.941010 -2.275345 2.275343
												CHANNELS 3 Xrotation Yrotation Zrotation
												End Site
												{
													OFFSET 0.005814 5.087799 0.009927
												}
											}
										}
									}
								}
								JOINT RightHandIndex1
								{
									OFFSET -24.424698 -1.985657 5.953444
									CHANNELS 3 Xrotation Yrotation Zrotation
									JOINT RightHandIndex2
									{
										OFFSET -6.426697 0.000000 0.000000
										CHANNELS 3 Xrotation Yrotation Zrotation
										JOINT RightHandIndex3
										{
											OFFSET -5.337898 0.000000 0.000000
											CHANNELS 3 Xrotation Yrotation Zrotation
											JOINT RightHandIndex4
											{
												OFFSET -4.409401 0.000000 0.000000
												CHANNELS 3 Xrotation Yrotation Zrotation
												End Site
												{
													OFFSET 0.000000 4.409363 0.014408
												}
											}
										}
									}
								}
								JOINT RightHandMiddle1
								{
									OFFSET -23.810097 0.000000 0.000000
									CHANNELS 3 Xrotation Yrotation Zrotation
									JOINT RightHandMiddle2
									{
										OFFSET -7.176498 0.000000 0.000000
										CHANNELS 3 Xrotation Yrotation Zrotation
										JOINT RightHandMiddle3
										{
											OFFSET -6.774902 0.000000 0.000000
											CHANNELS 3 Xrotation Yrotation Zrotation
											JOINT RightHandMiddle4
											{
												OFFSET -5.403328 0.000000 0.000000
												CHANNELS 3 Xrotation Yrotation Zrotation
												End Site
												{
													OFFSET 0.027702 5.403244 0.017457
												}
											}
										}
									}
								}
								JOINT RightHandRing1
								{
									OFFSET -22.908302 -0.839325 -6.020576
									CHANNELS 3 Xrotation Yrotation Zrotation
									JOINT RightHandRing2
									{
										OFFSET -6.337502 0.000000 0.000000
										CHANNELS 3 Xrotation Yrotation Zrotation
										JOINT RightHandRing3
										{
											OFFSET -5.779297 0.000000 0.000000
											CHANNELS 3 Xrotation Yrotation Zrotation
											JOINT RightHandRing4
											{
												OFFSET -4.965698 0.000000 0.000000
												CHANNELS 3 Xrotation Yrotation Zrotation
												End Site
												{
													OFFSET 0.000000 4.965668 0.016226
												}
											}
										}
									}
								}
								JOINT RightHandPinky1
								{
									OFFSET -20.037003 -1.530334 -10.950259
									CHANNELS 3 Xrotation Yrotation Zrotation
									JOINT RightHandPinky2
									{
										OFFSET -5.254700 0.000000 0.000000
										CHANNELS 3 Xrotation Yrotation Zrotation
										JOINT RightHandPinky3
										{
											OFFSET -4.810204 0.000000 0.000000
											CHANNELS 3 Xrotation Yrotation Zrotation
											JOINT RightHandPinky4
											{
												OFFSET -3.647202 0.000000 0.000000
												CHANNELS 3 Xrotation Yrotation Zrotation
												End Site
												{
													OFFSET 0.000000 3.647186 0.011917
												}
											}
										}
									}
								}
							}
						}
					}
				}
			}
		}
	}
	JOINT LeftUpLeg
	{
		OFFSET 15.427100 -6.655098 0.678600
		CHANNELS 3 Xrotation Yrotation Zrotation
		JOINT LeftLeg
		{
			OFFSET 4.081073 -39.591068 13.024000
			CHANNELS 3 Xrotation Yrotation Zrotation
			JOINT LeftFoot
			{
				OFFSET -4.081074 -37.707932 -15.979700
				CHANNELS 3 Xrotation Yrotation Zrotation
				JOINT LeftToeBase
				{
					OFFSET 5.346399 -15.068900 20.645000
					CHANNELS 3 Xrotation Yrotation Zrotation
					JOINT LeftToe_End
					{
						OFFSET 2.754700 0.931300 11.300900
						CHANNELS 3 Xrotation Yrotation Zrotation
						End Site
						{
							OFFSET 0.000000 11.669021 0.000000
						}
					}
				}
			}
		}
	}
	JOINT RightUpLeg
	{
		OFFSET -15.569500 -6.655098 0.678600
		CHANNELS 3 Xrotation Yrotation Zrotation
		JOINT RightLeg
		{
			OFFSET -4.081825 -39.591045 13.023800
			CHANNELS 3 Xrotation Yrotation Zrotation
			JOINT RightFoot
			{
				OFFSET 4.081824 -37.707954 -15.979600
				CHANNELS 3 Xrotation Yrotation Zrotation
				JOINT RightToeBase
				{
					OFFSET -5.346400 -15.068900 20.645000
					CHANNELS 3 Xrotation Yrotation Zrotation
					JOINT RightToe_End
					{
						OFFSET -2.754700 0.931300 11.300900
						CHANNELS 3 Xrotation Yrotation Zrotation
						End Site
						{
							OFFSET 0.000000 11.669021 0.000000
						}
					}
				}
			}
		}
	}
}
MOTION
Frames: 4
Frame Time: 0.033333
2.624032 95.036148 4.281161 -26.607746 -70.475114 -25.306010 2.984048 3.106273 0.078456 5.853449 5.881505 2.214590 5.893873 5.838943 2.219279 10.001663 6.092131 -8.906357 -2.417527 35.462602 -4.003886 -0.000001 -0.000001 0.000000 1.887886 -4.644061 -11.570975 -22.043787 16.542756 -24.386912 0.000076 -99.395659 0.000087 -29.970880 9.613160 -2.183653 13.440422 14.461247 -16.748949 44.409572 44.305395 -5.927896 13.359792 22.034078 1.096471 -0.000002 0.000000 -0.000001 7.358873 6.864677 -93.990179 7.358893 6.864672 -93.990220 2.174453 5.025354 -46.774133 0.000002 -0.000003 -0.000002 7.356941 6.864820 -93.973977 7.360833 6.864549 -94.006414 2.174468 5.025362 -46.774122 0.000000 0.000000 0.000003 7.358874 6.864678 -93.990185 7.358897 6.864674 -93.990220 2.174452 5.025349 -46.774136 0.000000 -0.000002 -0.000001 11.431431 6.583614 -93.956813 7.357783 2.778425 -93.976921 2.174461 5.025354 -46.774119 -0.000000 -0.000001 -0.000002 1.386534 1.198059 11.122280 -61.543262 45.807381 63.879850 -0.000141 108.951674 0.000143 -25.254957 3.379272 -7.760379 25.187767 -0.167279 3.133620 58.553532 -29.770322 38.592150 20.312544 -18.206962 13.427670 0.000001 0.000000 0.000002 7.809882 -6.894857 97.140849 6.094136 -6.895784 82.921994 1.732045 -4.596484 41.277220 -0.000001 0.000002 -0.000003 7.809882 -6.894856 97.140849 6.094138 -6.895791 82.921994 1.732038 -4.596484 41.277224 -0.000002 0.000003 -0.000004 7.809876 -6.894865 97.140849 6.094145 -6.895800 82.921987 1.732046 -4.596481 41.277220 0.000001 0.000000 -0.000003 7.809882 -6.894857 97.140849 6.094143 -6.895799 82.921994 1.732047 -4.596479 41.277220 -0.000000 -0.000003 0.000001 -13.652346 14.938843 18.761749 27.976498 -9.232482 -0.673594 11.410937 -13.828467 -5.321711 -21.025035 0.063555 -0.312253 -0.000000 0.000001 -0.000000 0.478920 -12.683087 -15.280265 26.841745 1.760894 0.405669 -0.561876 -2.153852 10.015547 -12.931899 -0.188526 3.592904 -0.000000 0.000000 -0.000000 
2.813368 94.419884 5.396518 -36.139668 -71.369439 -33.355082 3.431262 3.655320 -0.570589 6.627781 6.468978 2.372539 6.668098 6.424668 2.378934 10.347995 6.042281 -9.105544 -1.160179 35.146893 -4.481284 0.000000 0.000000 -0.000000 1.954861 -5.022020 -11.660684 -23.448022 15.430953 -24.735477 0.000020 -96.085660 -0.000011 -29.396967 8.810947 -2.127196 13.440420 14.461242 -16.748952 44.409569 44.305385 -5.927895 13.359794 22.034079 1.096470 0.000001 0.000000 0.000000 7.358874 6.864676 -93.990179 7.358892 6.864672 -93.990220 2.174457 5.025352 -46.774139 0.000002 0.000000 0.000000 7.356941 6.864818 -93.973977 7.360833 6.864551 -94.006414 2.174461 5.025362 -46.774119 0.000002 0.000001 0.000001 7.358874 6.864676 -93.990185 7.358895 6.864675 -93.990213 2.174461 5.025343 -46.774129 -0.000002 0.000000 -0.000001 11.431433 6.583614 -93.956813 7.357782 2.778421 -93.976921 2.174460 5.025354 -46.774122 0.000002 0.000000 0.000000 0.510365 -0.361663 11.827715 -63.592756 48.529782 67.541371 0.000039 107.753447 -0.000040 -25.194309 3.485176 -7.989304 25.187765 -0.167278 3.133624 58.553532 -29.770315 38.592150 20.312544 -18.206962 13.427669 -0.000001 0.000002 0.000001 7.809879 -6.894855 97.140856 6.094136 -6.895784 82.921994 1.732049 -4.596484 41.277224 -0.000000 0.000001 -0.000000 7.809881 -6.894856 97.140849 6.094139 -6.895786 82.921994 1.732037 -4.596487 41.277220 -0.000001 0.000001 0.000000 7.809877 -6.894865 97.140849 6.094145 -6.895800 82.921987 1.732042 -4.596479 41.277220 -0.000000 0.000003 0.000001 7.809881 -6.894857 97.140849 6.094147 -6.895794 82.921994 1.732043 -4.596477 41.277220 -0.000001 0.000003 -0.000001 -7.758710 15.038053 16.969945 26.190528 -9.544446 -0.765282 5.410131 -14.593389 -5.436895 -15.364811 0.042226 -1.250331 -0.000000 0.000000 -0.000000 1.692103 -13.301449 -17.523496 29.689299 -3.862221 0.174110 -3.299797 -1.859075 8.945221 -8.537312 -0.220333 5.275034 0.000001 0.000001 0.000000 
3.206900 92.580833 6.381247 -43.847233 -71.860550 -39.989511 3.673771 4.128186 -0.991637 7.027835 7.007783 2.422124 7.070333 6.961900 2.429324 9.889177 5.934710 -8.826656 -1.043014 34.769194 -5.273840 0.000001 -0.000001 0.000000 1.964514 -5.124041 -11.598798 -25.018590 13.871887 -25.330153 0.000241 -93.750070 0.000294 -28.871469 8.147615 -1.872559 13.440424 14.461247 -16.748947 44.409576 44.305385 -5.927894 13.359793 22.034079 1.096472 0.000001 0.000001 0.000000 7.358874 6.864678 -93.990185 7.358891 6.864672 -93.990213 2.174458 5.025352 -46.774133 0.000000 0.000001 -0.000001 7.356944 6.864822 -93.973977 7.360833 6.864548 -94.006414 2.174464 5.025365 -46.774126 -0.000001 -0.000001 0.000001 7.358874 6.864678 -93.990185 7.358895 6.864676 -93.990213 2.174458 5.025348 -46.774133 -0.000000 0.000001 0.000001 11.431433 6.583614 -93.956820 7.357785 2.778419 -93.976921 2.174458 5.025354 -46.774122 0.000002 -0.000000 0.000000 0.945642 0.751195 11.714372 -63.982132 48.135287 68.035815 0.000140 107.008772 -0.000120 -25.413983 3.598084 -8.199895 25.187771 -0.167278 3.133625 58.553525 -29.770319 38.592147 20.312539 -18.206962 13.427670 -0.000002 0.000002 -0.000003 7.809881 -6.894855 97.140849 6.094133 -6.895786 82.921994 1.732048 -4.596484 41.277224 -0.000002 0.000002 -0.000001 7.809881 -6.894854 97.140849 6.094137 -6.895791 82.921994 1.732029 -4.596484 41.277220 -0.000000 0.000001 0.000002 7.809877 -6.894862 97.140856 6.094144 -6.895794 82.921987 1.732044 -4.596482 41.277220 -0.000003 -0.000001 -0.000001 7.809881 -6.894855 97.140849 6.094145 -6.895796 82.921994 1.732040 -4.596479 41.277224 0.000000 -0.000000 -0.000001 -3.567433 15.349085 15.379832 26.797463 -9.869219 -0.824428 -2.642294 -13.570095 -5.489658 -15.124004 0.000016 0.000008 -0.000000 -0.000000 0.000000 1.614455 -13.055814 -19.063661 34.488477 -7.909011 -0.025076 -7.964696 -2.663412 7.642365 -6.362883 -0.190670 4.870226 0.000000 0.000002 0.000000 
3.751299 90.027473 7.188843 -47.992574 -72.166536 -43.501560 3.889239 4.385910 -1.528202 7.426437 7.192719 2.168293 7.478734 7.135550 2.175457 8.873056 5.936284 -8.266442 -1.766710 35.077874 -6.125907 -0.000001 0.000001 -0.000000 1.919773 -4.973174 -11.385688 -26.688472 12.748040 -25.837842 -0.002940 -92.638190 -0.002995 -28.231607 7.823551 -1.844146 13.440422 14.461245 -16.748945 44.409569 44.305395 -5.927896 13.359793 22.034076 1.096468 -0.000001 -0.000000 0.000002 7.358873 6.864676 -93.990179 7.358893 6.864670 -93.990220 2.174460 5.025351 -46.774133 -0.000000 -0.000000 -0.000001 7.356940 6.864821 -93.973984 7.360833 6.864552 -94.006414 2.174467 5.025360 -46.774122 0.000002 0.000002 0.000000 7.358873 6.864676 -93.990179 7.358896 6.864671 -93.990213 2.174459 5.025351 -46.774139 0.000001 -0.000001 -0.000000 11.431431 6.583613 -93.956820 7.357782 2.778418 -93.976921 2.174465 5.025354 -46.774122 0.000000 -0.000001 -0.000001 1.489448 1.771009 11.304029 -64.353284 46.152141 68.924873 0.000189 107.300885 -0.000179 -25.728768 3.629981 -8.228439 25.187769 -0.167279 3.133624 58.553532 -29.770322 38.592153 20.312540 -18.206960 13.427660 -0.000002 0.000001 0.000002 7.809887 -6.894858 97.140849 6.094134 -6.895785 82.921994 1.732046 -4.596485 41.277224 -0.000001 -0.000003 -0.000000 7.809887 -6.894857 97.140849 6.094142 -6.895788 82.921994 1.732039 -4.596485 41.277217 -0.000002 -0.000005 0.000000 7.809881 -6.894866 97.140856 6.094145 -6.895796 82.921987 1.732041 -4.596484 41.277220 0.000000 0.000001 0.000001 7.809887 -6.894858 97.140849 6.094147 -6.895795 82.921994 1.732043 -4.596480 41.277220 -0.000001 0.000002 -0.000001 -1.886798 16.009542 14.566888 29.006519 -10.029277 -0.919072 -10.186902 -13.009739 -5.993485 -11.477909 -0.000000 -0.000003 0.000000 0.000000 -0.000000 0.517384 -11.968563 -19.633823 39.412630 -8.543431 -0.162189 -12.773252 -5.739227 7.055254 -5.306641 -0.109096 3.676001 0.000000 0.000003 -0.000001 
